<svg width="1024" height="1024" viewBox="0 0 1024 1024" fill="none" xmlns="http://www.w3.org/2000/svg">
<g clip-path="url(#clip0_228_2)">
<rect width="1024" height="1024" fill="black"/>
<g clip-path="url(#clip1_228_2)">
<path d="M857.227 363.667C774.873 219.825 626.155 193.407 494.188 244.361C435.32 238.706 365.756 207.531 316.561 232.566C268.266 257.136 342.769 294.868 352.849 336.437C351.473 337.801 349.85 338.953 348.728 340.523C265.324 456.415 247.059 578.046 287.937 696.125C297.46 735.789 306.552 751.2 304.838 784.788C301.775 845.515 307.574 906.17 322.784 943.413C378.082 901.297 397.828 840.674 397.828 840.674C444.402 846.539 501.004 824.138 504.687 816.638C482.532 754.76 380.288 774.083 394.87 640.594C413.083 594.898 421.474 566.738 458.186 529.501C468.411 519.13 497.016 495.128 513.753 487.407C512.69 475.715 511.262 464.423 509.191 454.247L522.121 451.758C524.033 461.186 525.422 471.406 526.478 481.981C527.594 493.466 528.33 505.367 528.925 517.102C532.088 579.981 530.934 638.42 563.51 605.378C619.364 548.726 652.887 494.903 668.585 457.219C673.277 456.994 678.045 456.8 682.907 456.621C696.548 456.111 710.658 455.726 725.295 455.346C761.583 454.401 808.072 439.774 840.795 456.602C935.029 505.031 960.197 446.696 920.495 426.043C880.815 405.37 885.192 412.452 857.227 363.667ZM758.569 380.126C751.985 386.805 741.234 386.88 734.564 380.304C727.886 373.72 727.824 362.987 734.409 356.308C740.985 349.638 751.705 349.561 758.383 356.145C765.052 362.72 765.144 373.457 758.569 380.126Z" fill="white"/>
</g>
</g>
<defs>
<clipPath id="clip0_228_2">
<rect width="1024" height="1024" fill="white"/>
</clipPath>
<clipPath id="clip1_228_2">
<rect width="800" height="800" fill="white" transform="translate(-107 519.685) rotate(-45.4066)"/>
</clipPath>
</defs>
</svg>
